<svg xmlns="http://www.w3.org/2000/svg" viewBox="0 0 800 520" role="img" aria-labelledby="title desc">
      <title id="title">Próbki miodu</title>
      <desc id="desc">miejsce na zdjęcie próbek lub słoików</desc>
      <defs>
        <linearGradient id="g" x1="0" x2="1" y1="0" y2="1">
          <stop offset="0" stop-color="#fff8e8"/>
          <stop offset="1" stop-color="#f2d6cf"/>
        </linearGradient>
      </defs>
      <rect width="800" height="520" fill="url(#g)"/>
      <circle cx="90" cy="85" r="70" fill="#ffffff" opacity="0.28"/>
      <circle cx="730" cy="90" r="120" fill="#ffffff" opacity="0.23"/>
      
        <rect x="125" y="170" width="120" height="190" rx="28" fill="#fffaf0" stroke="#f3c970" stroke-width="5"/>
        <rect x="148" y="145" width="74" height="38" rx="10" fill="#f3c970"/>
        <rect x="150" y="250" width="70" height="62" rx="16" fill="#f3c970" opacity="0.75"/>
        <rect x="330" y="140" width="145" height="220" rx="30" fill="#fffaf0" stroke="#f3c970" stroke-width="5"/>
        <rect x="360" y="112" width="85" height="43" rx="12" fill="#f3c970"/>
        <rect x="358" y="238" width="90" height="76" rx="18" fill="#f3c970" opacity="0.8"/>
        <rect x="545" y="178" width="118" height="182" rx="28" fill="#fffaf0" stroke="#f3c970" stroke-width="5"/>
        <rect x="568" y="153" width="72" height="38" rx="10" fill="#f3c970"/>
        <rect x="570" y="255" width="70" height="57" rx="16" fill="#f3c970" opacity="0.65"/>
        <path d="M80 385 C230 350 365 412 510 375 C620 345 700 355 760 330" fill="none" stroke="#c8d8c2" stroke-width="12" stroke-linecap="round" opacity="0.55"/>
        
      <text x="60" y="70" font-family="Arial, sans-serif" font-size="34" font-weight="700" fill="#2f342c">Próbki miodu</text>
      <text x="60" y="110" font-family="Arial, sans-serif" font-size="18" fill="#6c715f">miejsce na zdjęcie próbek lub słoików</text>
    </svg>